<?xml version="1.0" encoding="utf-8"?>
<!-- Generator: Adobe Illustrator 24.0.1, SVG Export Plug-In . SVG Version: 6.00 Build 0)  -->
<svg version="1.1" id="Layer_1" xmlns="http://www.w3.org/2000/svg" xmlns:xlink="http://www.w3.org/1999/xlink" x="0px" y="0px"
	 viewBox="0 0 170.08 36.85" style="enable-background:new 0 0 170.08 36.85;" xml:space="preserve">
<style type="text/css">
	.st0{fill:#52A3DB;}
	.st1{fill:none;stroke:#5A5A5A;stroke-width:0.5;stroke-miterlimit:10;}
	.st2{fill:#5A5A5A;}
</style>
<g>
	<path class="st0" d="M5.84,8.66c0-0.54-0.03-0.98-0.1-1.32c-0.06-0.34-0.19-0.6-0.37-0.8C5.19,6.34,4.93,6.19,4.59,6.1
		C4.26,6,3.82,5.93,3.28,5.88V5.31c0.46,0.03,1,0.06,1.6,0.1c0.61,0.03,1.28,0.05,2.03,0.05c0.75,0,1.5-0.04,2.26-0.12
		c0.76-0.08,1.54-0.12,2.33-0.12c0.75,0,1.48,0.1,2.18,0.29c0.7,0.19,1.32,0.48,1.87,0.86c0.54,0.38,0.98,0.87,1.3,1.47
		c0.33,0.6,0.49,1.3,0.49,2.12c0,0.72-0.15,1.34-0.44,1.85c-0.3,0.52-0.69,0.95-1.17,1.3c-0.49,0.35-1.04,0.61-1.65,0.78
		c-0.61,0.17-1.25,0.25-1.9,0.25c-0.53,0-1.06-0.04-1.59-0.12c-0.53-0.08-1.05-0.22-1.54-0.41v4.19c0,0.54,0.02,0.99,0.07,1.33
		c0.05,0.34,0.16,0.62,0.33,0.83c0.18,0.21,0.44,0.36,0.79,0.45c0.35,0.1,0.84,0.17,1.46,0.22v0.48c-0.69-0.03-1.37-0.06-2.05-0.07
		c-0.68-0.02-1.36-0.02-2.05-0.02c-0.73,0-1.46,0.01-2.18,0.02C4.71,21.05,4,21.07,3.28,21.1v-0.48c0.59-0.05,1.06-0.12,1.4-0.22
		c0.34-0.1,0.6-0.25,0.77-0.45c0.17-0.21,0.28-0.48,0.32-0.83c0.05-0.34,0.07-0.79,0.07-1.33V8.66z M9.04,12.87
		c0.25,0.11,0.55,0.21,0.87,0.29c0.33,0.08,0.64,0.12,0.95,0.12c1.08,0,1.9-0.34,2.45-1.02c0.55-0.68,0.83-1.54,0.83-2.57
		c0-0.51-0.06-0.98-0.17-1.42c-0.11-0.44-0.29-0.82-0.53-1.15c-0.24-0.33-0.55-0.58-0.95-0.77c-0.39-0.18-0.87-0.28-1.42-0.28
		c-0.37,0-0.72,0.03-1.05,0.1C9.69,6.23,9.36,6.33,9.04,6.46V12.87z"/>
	<path class="st0" d="M24.45,14.21c0-1.08-0.38-1.63-1.15-1.63c-0.27,0-0.49,0.05-0.66,0.14s-0.3,0.22-0.38,0.37
		c-0.09,0.15-0.15,0.32-0.18,0.51c-0.03,0.19-0.05,0.37-0.05,0.55c0,0.16,0,0.29,0.01,0.39c0.01,0.1,0.02,0.2,0.04,0.28
		c-0.59-0.13-1.14-0.25-1.65-0.36c-0.51-0.11-1.03-0.21-1.56-0.29c0.06-0.51,0.22-0.93,0.48-1.26c0.25-0.33,0.57-0.58,0.95-0.77
		c0.37-0.18,0.79-0.31,1.23-0.38c0.45-0.07,0.89-0.11,1.32-0.11c0.51,0,1.03,0.04,1.56,0.13c0.53,0.09,1,0.24,1.42,0.45
		c0.42,0.22,0.77,0.5,1.04,0.86c0.27,0.36,0.41,0.81,0.41,1.35c0,0.29-0.01,0.61-0.02,0.96c-0.02,0.35-0.03,0.7-0.04,1.04
		c-0.01,0.34-0.02,0.67-0.04,0.98c-0.02,0.31-0.02,0.57-0.02,0.78c0,0.35,0.06,0.67,0.19,0.96c0.13,0.29,0.4,0.43,0.81,0.43
		c0.27,0,0.51-0.07,0.73-0.22c0.22-0.14,0.42-0.3,0.61-0.48l0.38,0.43c-0.19,0.16-0.4,0.36-0.63,0.6c-0.23,0.24-0.47,0.46-0.72,0.67
		c-0.25,0.21-0.51,0.39-0.78,0.54c-0.27,0.15-0.55,0.23-0.84,0.23c-0.4,0-0.79-0.14-1.17-0.43c-0.38-0.29-0.71-0.57-0.98-0.84
		c-0.59,0.37-1.21,0.67-1.87,0.91c-0.65,0.24-1.33,0.36-2.03,0.36c-0.33,0-0.67-0.06-0.99-0.17c-0.33-0.11-0.62-0.27-0.87-0.47
		c-0.26-0.2-0.46-0.43-0.61-0.71c-0.15-0.27-0.23-0.56-0.23-0.86c0-0.77,0.21-1.36,0.62-1.78c0.41-0.42,0.94-0.74,1.57-0.96
		c0.63-0.22,1.31-0.35,2.05-0.39c0.73-0.05,1.42-0.07,2.06-0.07V14.21z M21.22,18.37c0,0.49,0.14,0.88,0.43,1.16
		c0.29,0.28,0.69,0.42,1.2,0.42c0.29,0,0.57-0.05,0.85-0.14c0.28-0.1,0.53-0.25,0.75-0.45c-0.02-0.22-0.03-0.43-0.04-0.62
		c-0.01-0.19-0.01-0.39-0.01-0.6c0-0.22,0-0.44,0.01-0.65c0.01-0.21,0.02-0.42,0.04-0.65c-0.22-0.03-0.43-0.06-0.63-0.07
		c-0.2-0.02-0.41-0.02-0.63-0.02c-0.48,0-0.93,0.14-1.34,0.41C21.43,17.42,21.22,17.83,21.22,18.37z"/>
	<path class="st0" d="M34.02,18.95c0,0.57,0.18,0.99,0.53,1.24c0.35,0.26,0.96,0.4,1.82,0.43v0.48c-0.56-0.03-1.12-0.06-1.67-0.07
		c-0.56-0.02-1.12-0.02-1.67-0.02c-0.56,0-1.12,0.01-1.67,0.02c-0.56,0.02-1.12,0.04-1.67,0.07v-0.48c0.53-0.03,0.94-0.18,1.23-0.43
		c0.3-0.25,0.44-0.67,0.44-1.24v-4.74c0-0.57-0.15-0.99-0.44-1.24c-0.3-0.26-0.71-0.4-1.23-0.43v-0.48c0.22,0,0.54-0.02,0.95-0.06
		c0.41-0.04,0.83-0.08,1.27-0.13c0.44-0.05,0.85-0.1,1.24-0.16c0.39-0.06,0.69-0.1,0.9-0.13v1.67c0.27-0.22,0.54-0.45,0.81-0.67
		c0.27-0.22,0.55-0.43,0.84-0.61c0.29-0.18,0.59-0.33,0.91-0.45c0.32-0.12,0.66-0.18,1.03-0.18c0.59,0,1,0.18,1.23,0.55
		c0.23,0.37,0.35,0.91,0.35,1.63c-0.19,0.1-0.42,0.2-0.68,0.32c-0.26,0.12-0.53,0.24-0.79,0.36c-0.26,0.12-0.51,0.24-0.74,0.36
		c-0.23,0.12-0.42,0.22-0.56,0.3l-0.29-0.19c0.11-0.08,0.24-0.2,0.39-0.35c0.15-0.15,0.23-0.31,0.23-0.47c0-0.29-0.08-0.5-0.25-0.63
		c-0.17-0.14-0.39-0.2-0.66-0.2c-0.11,0-0.25,0.04-0.42,0.11c-0.17,0.07-0.34,0.16-0.51,0.26c-0.18,0.1-0.34,0.22-0.5,0.36
		c-0.16,0.14-0.29,0.27-0.38,0.39V18.95z"/>
	<path class="st0" d="M46.15,14.21c0-1.08-0.38-1.63-1.15-1.63c-0.27,0-0.49,0.05-0.66,0.14c-0.17,0.1-0.3,0.22-0.38,0.37
		c-0.09,0.15-0.15,0.32-0.18,0.51c-0.03,0.19-0.05,0.37-0.05,0.55c0,0.16,0,0.29,0.01,0.39c0.01,0.1,0.02,0.2,0.04,0.28
		c-0.59-0.13-1.14-0.25-1.65-0.36c-0.51-0.11-1.03-0.21-1.56-0.29c0.06-0.51,0.22-0.93,0.48-1.26c0.25-0.33,0.57-0.58,0.95-0.77
		c0.37-0.18,0.79-0.31,1.23-0.38c0.45-0.07,0.89-0.11,1.32-0.11c0.51,0,1.03,0.04,1.56,0.13c0.53,0.09,1,0.24,1.42,0.45
		c0.42,0.22,0.77,0.5,1.04,0.86c0.27,0.36,0.41,0.81,0.41,1.35c0,0.29-0.01,0.61-0.02,0.96c-0.02,0.35-0.03,0.7-0.04,1.04
		c-0.01,0.34-0.02,0.67-0.04,0.98c-0.02,0.31-0.02,0.57-0.02,0.78c0,0.35,0.06,0.67,0.19,0.96c0.13,0.29,0.4,0.43,0.81,0.43
		c0.27,0,0.51-0.07,0.73-0.22c0.22-0.14,0.42-0.3,0.61-0.48l0.38,0.43c-0.19,0.16-0.4,0.36-0.63,0.6c-0.23,0.24-0.47,0.46-0.72,0.67
		c-0.25,0.21-0.51,0.39-0.78,0.54c-0.27,0.15-0.55,0.23-0.84,0.23c-0.4,0-0.79-0.14-1.17-0.43c-0.38-0.29-0.71-0.57-0.98-0.84
		c-0.59,0.37-1.21,0.67-1.87,0.91c-0.65,0.24-1.33,0.36-2.03,0.36c-0.33,0-0.67-0.06-0.99-0.17c-0.33-0.11-0.62-0.27-0.87-0.47
		c-0.26-0.2-0.46-0.43-0.61-0.71c-0.15-0.27-0.23-0.56-0.23-0.86c0-0.77,0.21-1.36,0.62-1.78c0.41-0.42,0.94-0.74,1.57-0.96
		c0.63-0.22,1.31-0.35,2.05-0.39c0.73-0.05,1.42-0.07,2.06-0.07V14.21z M42.92,18.37c0,0.49,0.14,0.88,0.43,1.16
		c0.29,0.28,0.69,0.42,1.2,0.42c0.29,0,0.57-0.05,0.85-0.14c0.28-0.1,0.53-0.25,0.75-0.45c-0.02-0.22-0.03-0.43-0.04-0.62
		c-0.01-0.19-0.01-0.39-0.01-0.6c0-0.22,0-0.44,0.01-0.65c0.01-0.21,0.02-0.42,0.04-0.65c-0.22-0.03-0.43-0.06-0.63-0.07
		c-0.2-0.02-0.41-0.02-0.63-0.02c-0.48,0-0.93,0.14-1.34,0.41C43.13,17.42,42.92,17.83,42.92,18.37z"/>
	<path class="st0" d="M62.28,18.49c0,0.34,0.02,0.63,0.05,0.87c0.03,0.25,0.11,0.45,0.24,0.61c0.13,0.16,0.33,0.28,0.6,0.36
		c0.27,0.08,0.65,0.12,1.12,0.12v0.48c-0.43,0-0.88,0.01-1.34,0.02c-0.46,0.02-0.91,0.04-1.33,0.06c-0.42,0.02-0.81,0.05-1.16,0.08
		c-0.35,0.03-0.65,0.06-0.89,0.1v-0.93c-0.56,0.33-1.1,0.61-1.64,0.81c-0.53,0.21-1.14,0.31-1.83,0.31c-0.7,0-1.34-0.12-1.9-0.36
		c-0.57-0.24-1.05-0.57-1.46-1c-0.41-0.43-0.72-0.95-0.93-1.54c-0.22-0.6-0.32-1.25-0.32-1.95c0-0.77,0.16-1.45,0.48-2.06
		c0.32-0.61,0.74-1.12,1.26-1.53c0.52-0.41,1.11-0.73,1.78-0.95c0.67-0.22,1.36-0.32,2.08-0.32c0.21,0,0.55,0.07,1.04,0.2
		c0.49,0.14,0.93,0.32,1.33,0.56V6.17c0-0.41-0.14-0.72-0.41-0.91c-0.27-0.19-0.74-0.29-1.41-0.29V4.5
		c0.91-0.03,1.76-0.09,2.56-0.17c0.8-0.08,1.49-0.2,2.08-0.36V18.49z M59.58,14.38c-0.26-0.51-0.53-0.92-0.83-1.23
		c-0.3-0.31-0.75-0.47-1.35-0.47c-0.54,0-0.99,0.11-1.33,0.34c-0.34,0.22-0.61,0.51-0.81,0.86c-0.2,0.35-0.34,0.75-0.41,1.18
		c-0.07,0.44-0.11,0.87-0.11,1.3c0,0.38,0.04,0.79,0.11,1.23c0.07,0.44,0.2,0.84,0.38,1.2c0.18,0.36,0.43,0.66,0.74,0.9
		c0.31,0.24,0.71,0.36,1.18,0.36c0.65,0,1.18-0.15,1.58-0.45c0.4-0.3,0.68-0.69,0.84-1.15V14.38z"/>
	<path class="st0" d="M69.29,19.21c0,0.57,0.18,0.95,0.53,1.14c0.35,0.18,0.76,0.28,1.22,0.28v0.48c-0.21-0.02-0.41-0.03-0.62-0.04
		c-0.21-0.01-0.43-0.02-0.67-0.02c-0.24-0.01-0.51-0.02-0.81-0.02c-0.3-0.01-0.66-0.01-1.08-0.01c-0.78,0-1.4,0.01-1.87,0.02
		c-0.46,0.02-0.88,0.04-1.24,0.07v-0.48c0.45,0,0.85-0.09,1.2-0.28c0.35-0.18,0.53-0.56,0.53-1.14v-5.48c0-0.41-0.14-0.72-0.41-0.91
		c-0.27-0.19-0.71-0.29-1.32-0.29v-0.48c0.86-0.03,1.69-0.09,2.49-0.17c0.8-0.08,1.51-0.2,2.13-0.36c-0.02,0.4-0.03,0.79-0.05,1.17
		c-0.02,0.38-0.02,0.76-0.02,1.12V19.21z M67.74,4.97c0.51,0,0.95,0.18,1.3,0.53c0.36,0.35,0.54,0.79,0.54,1.32
		s-0.18,0.97-0.54,1.32c-0.36,0.35-0.79,0.53-1.3,0.53c-0.51,0-0.95-0.18-1.3-0.53c-0.36-0.35-0.54-0.79-0.54-1.32
		s0.18-0.97,0.54-1.32C66.79,5.15,67.23,4.97,67.74,4.97z"/>
	<path class="st0" d="M72.76,17.66c0.43,0.83,1,1.53,1.71,2.11c0.71,0.57,1.55,0.86,2.52,0.86c0.35,0,0.66-0.08,0.93-0.24
		c0.27-0.16,0.41-0.42,0.41-0.79c0-0.33-0.15-0.61-0.44-0.84c-0.3-0.22-0.66-0.43-1.1-0.61c-0.44-0.18-0.92-0.37-1.44-0.55
		c-0.52-0.18-1-0.41-1.44-0.67c-0.44-0.26-0.81-0.59-1.1-0.97c-0.3-0.38-0.44-0.86-0.44-1.44c0-0.54,0.1-0.99,0.29-1.35
		c0.19-0.36,0.44-0.65,0.75-0.87c0.31-0.22,0.67-0.38,1.06-0.48c0.4-0.1,0.8-0.14,1.2-0.14c0.51,0,1.08,0.07,1.71,0.22
		c0.63,0.14,1.24,0.22,1.83,0.22c0.1,0,0.21-0.02,0.34-0.05l0.19,2.97h-0.57c-0.14-0.29-0.33-0.58-0.56-0.89
		c-0.23-0.3-0.49-0.58-0.79-0.83c-0.3-0.25-0.61-0.45-0.95-0.62c-0.33-0.17-0.67-0.25-1-0.25c-0.33,0-0.64,0.07-0.92,0.2
		c-0.28,0.14-0.42,0.41-0.42,0.83c0,0.34,0.14,0.61,0.43,0.84c0.29,0.22,0.65,0.43,1.08,0.61c0.43,0.18,0.9,0.37,1.4,0.55
		c0.5,0.18,0.97,0.41,1.4,0.67c0.43,0.26,0.79,0.58,1.08,0.96c0.29,0.37,0.43,0.84,0.43,1.4c0,0.54-0.1,1-0.31,1.36
		c-0.21,0.37-0.48,0.67-0.83,0.9c-0.34,0.23-0.73,0.39-1.17,0.49c-0.44,0.1-0.89,0.14-1.35,0.14c-0.73,0-1.46-0.07-2.18-0.2
		c-0.72-0.14-1.41-0.34-2.08-0.61l-0.22-2.92H72.76z"/>
	<path class="st0" d="M84.72,16.51c0,1,0.28,1.83,0.85,2.48c0.57,0.65,1.37,0.97,2.4,0.97c0.56,0,1.1-0.12,1.64-0.36
		c0.53-0.24,0.98-0.58,1.35-1.03l0.57,0.62c-0.62,0.7-1.35,1.24-2.18,1.63c-0.83,0.38-1.7,0.57-2.61,0.57
		c-0.78,0-1.48-0.12-2.11-0.35s-1.16-0.56-1.6-0.98c-0.45-0.42-0.79-0.93-1.03-1.53c-0.24-0.6-0.36-1.26-0.36-2
		c0-0.73,0.12-1.4,0.36-2c0.24-0.6,0.58-1.11,1.03-1.53c0.45-0.42,0.98-0.75,1.6-0.98c0.62-0.23,1.32-0.35,2.11-0.35
		c0.77,0,1.44,0.12,2.02,0.37c0.58,0.25,1.08,0.59,1.48,1.03c0.41,0.44,0.72,0.95,0.95,1.54c0.22,0.59,0.37,1.22,0.43,1.89H84.72z
		 M87.76,15.6c0.32,0,0.53-0.04,0.65-0.12c0.11-0.08,0.17-0.26,0.17-0.55c0-0.7-0.14-1.27-0.43-1.7c-0.29-0.43-0.78-0.65-1.48-0.65
		c-0.37,0-0.67,0.1-0.92,0.3c-0.25,0.2-0.45,0.45-0.6,0.75c-0.15,0.3-0.26,0.63-0.32,0.98c-0.06,0.35-0.1,0.68-0.1,0.98H87.76z"/>
	<path class="st0" d="M99.22,5.36c0.59,0.03,1.17,0.06,1.73,0.07c0.57,0.02,1.21,0.02,1.93,0.02c0.86,0,1.72-0.02,2.58-0.07
		c0.86-0.05,1.76-0.07,2.7-0.07c0.83,0,1.57,0.12,2.24,0.36c0.66,0.24,1.23,0.57,1.7,0.99c0.47,0.42,0.83,0.91,1.08,1.47
		c0.25,0.56,0.37,1.16,0.37,1.82c0,0.56-0.09,1.05-0.28,1.47c-0.18,0.42-0.43,0.79-0.75,1.1c-0.32,0.31-0.69,0.57-1.12,0.78
		c-0.43,0.21-0.9,0.37-1.41,0.48c0.34,0.54,0.75,1.18,1.24,1.93c0.49,0.74,1.04,1.46,1.64,2.15c0.6,0.69,1.24,1.3,1.93,1.83
		c0.69,0.53,1.39,0.85,2.11,0.98v0.43c-0.46-0.03-0.91-0.06-1.35-0.07c-0.44-0.02-0.89-0.02-1.35-0.02c-0.4,0-0.8,0.01-1.2,0.02
		c-0.4,0.02-0.8,0.04-1.2,0.07c-1-1.07-1.93-2.19-2.79-3.35c-0.85-1.16-1.63-2.38-2.33-3.66c-0.27-0.03-0.58-0.08-0.92-0.14
		c-0.34-0.06-0.6-0.16-0.78-0.29v4.14c0,0.54,0.02,0.98,0.06,1.32c0.04,0.33,0.14,0.6,0.31,0.79c0.17,0.19,0.41,0.33,0.73,0.42
		c0.32,0.09,0.76,0.16,1.32,0.2v0.57c-0.56-0.03-1.17-0.06-1.83-0.07c-0.66-0.02-1.34-0.02-2.02-0.02c-0.73,0-1.46,0.01-2.18,0.02
		c-0.72,0.02-1.44,0.04-2.15,0.07v-0.57c0.59-0.05,1.06-0.12,1.4-0.2c0.34-0.09,0.6-0.23,0.77-0.42s0.28-0.45,0.32-0.79
		c0.05-0.33,0.07-0.77,0.07-1.32V8.71c0-0.48-0.02-0.89-0.07-1.22c-0.05-0.33-0.16-0.61-0.32-0.84c-0.17-0.22-0.42-0.39-0.77-0.51
		c-0.34-0.12-0.81-0.2-1.4-0.25V5.36z M104.99,12.73c0.51,0.24,1.04,0.36,1.6,0.36c1.05,0,1.9-0.3,2.55-0.89
		c0.65-0.59,0.97-1.45,0.97-2.58c0-0.48-0.08-0.93-0.23-1.35c-0.15-0.42-0.37-0.79-0.66-1.1c-0.29-0.31-0.63-0.55-1.03-0.73
		c-0.4-0.18-0.85-0.26-1.34-0.26c-0.32,0-0.63,0.02-0.93,0.05c-0.3,0.03-0.61,0.1-0.93,0.22V12.73z"/>
	<path class="st0" d="M119.3,16.51c0,1,0.28,1.83,0.85,2.48c0.57,0.65,1.37,0.97,2.4,0.97c0.56,0,1.1-0.12,1.64-0.36
		c0.53-0.24,0.98-0.58,1.35-1.03l0.57,0.62c-0.62,0.7-1.35,1.24-2.18,1.63c-0.83,0.38-1.7,0.57-2.61,0.57
		c-0.78,0-1.48-0.12-2.11-0.35c-0.62-0.23-1.16-0.56-1.6-0.98c-0.45-0.42-0.79-0.93-1.03-1.53c-0.24-0.6-0.36-1.26-0.36-2
		c0-0.73,0.12-1.4,0.36-2c0.24-0.6,0.58-1.11,1.03-1.53c0.45-0.42,0.98-0.75,1.6-0.98c0.62-0.23,1.32-0.35,2.11-0.35
		c0.77,0,1.44,0.12,2.02,0.37c0.58,0.25,1.08,0.59,1.48,1.03c0.41,0.44,0.72,0.95,0.95,1.54c0.22,0.59,0.37,1.22,0.43,1.89H119.3z
		 M122.34,15.6c0.32,0,0.53-0.04,0.65-0.12c0.11-0.08,0.17-0.26,0.17-0.55c0-0.7-0.14-1.27-0.43-1.7c-0.29-0.43-0.78-0.65-1.48-0.65
		c-0.37,0-0.67,0.1-0.92,0.3c-0.25,0.2-0.45,0.45-0.6,0.75c-0.15,0.3-0.26,0.63-0.32,0.98c-0.06,0.35-0.1,0.68-0.1,0.98H122.34z"/>
	<path class="st0" d="M128.15,17.66c0.43,0.83,1,1.53,1.71,2.11c0.71,0.57,1.55,0.86,2.52,0.86c0.35,0,0.66-0.08,0.93-0.24
		c0.27-0.16,0.41-0.42,0.41-0.79c0-0.33-0.15-0.61-0.44-0.84c-0.3-0.22-0.66-0.43-1.1-0.61c-0.44-0.18-0.92-0.37-1.44-0.55
		c-0.52-0.18-1-0.41-1.44-0.67c-0.44-0.26-0.81-0.59-1.1-0.97c-0.3-0.38-0.44-0.86-0.44-1.44c0-0.54,0.1-0.99,0.29-1.35
		c0.19-0.36,0.44-0.65,0.75-0.87c0.31-0.22,0.67-0.38,1.06-0.48c0.4-0.1,0.8-0.14,1.2-0.14c0.51,0,1.08,0.07,1.71,0.22
		c0.63,0.14,1.24,0.22,1.83,0.22c0.1,0,0.21-0.02,0.33-0.05l0.19,2.97h-0.57c-0.14-0.29-0.33-0.58-0.56-0.89
		c-0.23-0.3-0.49-0.58-0.79-0.83c-0.3-0.25-0.61-0.45-0.95-0.62s-0.67-0.25-1-0.25c-0.34,0-0.64,0.07-0.92,0.2
		c-0.28,0.14-0.42,0.41-0.42,0.83c0,0.34,0.14,0.61,0.43,0.84c0.29,0.22,0.65,0.43,1.08,0.61c0.43,0.18,0.9,0.37,1.4,0.55
		c0.5,0.18,0.97,0.41,1.4,0.67c0.43,0.26,0.79,0.58,1.08,0.96c0.29,0.37,0.43,0.84,0.43,1.4c0,0.54-0.1,1-0.31,1.36
		c-0.21,0.37-0.48,0.67-0.83,0.9c-0.34,0.23-0.73,0.39-1.17,0.49c-0.44,0.1-0.89,0.14-1.35,0.14c-0.73,0-1.46-0.07-2.18-0.2
		c-0.72-0.14-1.41-0.34-2.08-0.61l-0.22-2.92H128.15z"/>
	<path class="st0" d="M142.65,11.67c0.72,0,1.41,0.11,2.08,0.32c0.67,0.22,1.26,0.53,1.78,0.95c0.52,0.42,0.94,0.93,1.26,1.53
		c0.32,0.61,0.48,1.29,0.48,2.06c0,0.77-0.16,1.45-0.48,2.06c-0.32,0.61-0.74,1.12-1.26,1.53c-0.52,0.42-1.11,0.73-1.78,0.95
		c-0.67,0.22-1.36,0.32-2.08,0.32c-0.72,0-1.41-0.11-2.08-0.32c-0.67-0.22-1.26-0.53-1.78-0.95c-0.52-0.41-0.94-0.92-1.26-1.53
		c-0.32-0.61-0.48-1.29-0.48-2.06c0-0.77,0.16-1.45,0.48-2.06c0.32-0.61,0.74-1.12,1.26-1.53c0.52-0.41,1.11-0.73,1.78-0.95
		C141.24,11.78,141.93,11.67,142.65,11.67z M140.26,16.08c0,0.75,0.07,1.4,0.22,1.96c0.14,0.56,0.34,1.02,0.59,1.38
		c0.25,0.36,0.53,0.63,0.85,0.8c0.32,0.18,0.65,0.26,0.98,0.26c0.67,0,1.2-0.3,1.58-0.89c0.38-0.59,0.57-1.46,0.57-2.61
		c0-0.75-0.07-1.4-0.22-1.96c-0.14-0.56-0.34-1.02-0.59-1.38c-0.25-0.36-0.53-0.63-0.85-0.8c-0.32-0.18-0.65-0.26-0.98-0.26
		c-0.67,0-1.2,0.3-1.58,0.89C140.45,14.06,140.26,14.93,140.26,16.08z"/>
	<path class="st0" d="M153.66,18.95c0,0.57,0.18,0.99,0.53,1.24c0.35,0.26,0.96,0.4,1.82,0.43v0.48c-0.56-0.03-1.12-0.06-1.67-0.07
		c-0.56-0.02-1.12-0.02-1.67-0.02c-0.56,0-1.12,0.01-1.67,0.02c-0.56,0.02-1.12,0.04-1.67,0.07v-0.48c0.53-0.03,0.94-0.18,1.23-0.43
		c0.29-0.25,0.44-0.67,0.44-1.24v-4.74c0-0.57-0.15-0.99-0.44-1.24c-0.3-0.26-0.71-0.4-1.23-0.43v-0.48c0.22,0,0.54-0.02,0.95-0.06
		c0.41-0.04,0.83-0.08,1.27-0.13s0.85-0.1,1.24-0.16c0.39-0.06,0.69-0.1,0.9-0.13v1.67c0.27-0.22,0.54-0.45,0.81-0.67
		c0.27-0.22,0.55-0.43,0.84-0.61c0.29-0.18,0.59-0.33,0.91-0.45c0.32-0.12,0.66-0.18,1.03-0.18c0.59,0,1,0.18,1.23,0.55
		c0.23,0.37,0.35,0.91,0.35,1.63c-0.19,0.1-0.42,0.2-0.68,0.32s-0.53,0.24-0.79,0.36c-0.26,0.12-0.51,0.24-0.74,0.36
		c-0.23,0.12-0.42,0.22-0.56,0.3l-0.29-0.19c0.11-0.08,0.24-0.2,0.39-0.35c0.15-0.15,0.23-0.31,0.23-0.47c0-0.29-0.08-0.5-0.25-0.63
		c-0.17-0.14-0.39-0.2-0.66-0.2c-0.11,0-0.25,0.04-0.42,0.11c-0.17,0.07-0.34,0.16-0.51,0.26c-0.18,0.1-0.34,0.22-0.5,0.36
		c-0.16,0.14-0.29,0.27-0.38,0.39V18.95z"/>
	<path class="st0" d="M159.14,12.87v-0.55c0.51-0.03,0.97-0.15,1.38-0.36c0.41-0.21,0.77-0.47,1.08-0.79
		c0.31-0.32,0.59-0.68,0.83-1.09c0.24-0.41,0.45-0.83,0.62-1.26h0.48v3.23h3.3v0.81h-3.3v5.07c0,0.7,0.11,1.19,0.32,1.46
		c0.22,0.27,0.59,0.41,1.14,0.41c0.29,0,0.59-0.1,0.92-0.29c0.33-0.19,0.63-0.42,0.9-0.69l0.5,0.55c-0.24,0.21-0.51,0.43-0.81,0.67
		c-0.3,0.24-0.63,0.46-0.97,0.66c-0.34,0.2-0.69,0.36-1.03,0.49c-0.34,0.13-0.67,0.19-0.99,0.19c-0.83,0-1.48-0.2-1.95-0.61
		c-0.47-0.41-0.71-1.02-0.71-1.83v-6.08H159.14z"/>
</g>
<line class="st1" x1="2.61" y1="31.39" x2="62.43" y2="31.39"/>
<g>
	<path class="st2" d="M71.26,30.73c-0.04-0.15-0.1-0.29-0.19-0.41c-0.09-0.13-0.19-0.24-0.31-0.34s-0.25-0.17-0.39-0.23
		c-0.14-0.06-0.28-0.08-0.42-0.08c-0.18,0-0.33,0.05-0.46,0.14c-0.13,0.09-0.19,0.23-0.19,0.42c0,0.14,0.06,0.27,0.17,0.36
		c0.11,0.1,0.26,0.19,0.43,0.27c0.17,0.08,0.36,0.16,0.55,0.25c0.2,0.08,0.38,0.18,0.55,0.3s0.31,0.26,0.43,0.42
		s0.17,0.37,0.17,0.61c0,0.17-0.03,0.33-0.1,0.47c-0.07,0.14-0.16,0.26-0.29,0.36c-0.12,0.1-0.27,0.17-0.45,0.23
		c-0.18,0.05-0.37,0.08-0.59,0.08c-0.1,0-0.2-0.01-0.3-0.03c-0.1-0.02-0.2-0.04-0.3-0.06c-0.1-0.02-0.2-0.04-0.3-0.06
		c-0.1-0.02-0.2-0.03-0.3-0.03c-0.02,0-0.04,0-0.06,0.01c-0.03,0.01-0.05,0.01-0.08,0.02c-0.03,0.01-0.06,0.02-0.09,0.02
		c-0.03,0.01-0.05,0.02-0.07,0.02c-0.03-0.22-0.07-0.45-0.1-0.68c-0.04-0.23-0.08-0.46-0.14-0.69h0.13
		c0.04,0.15,0.12,0.29,0.22,0.44c0.1,0.14,0.22,0.27,0.35,0.39c0.13,0.11,0.28,0.2,0.43,0.27c0.16,0.07,0.31,0.1,0.46,0.1
		c0.13,0,0.25-0.01,0.36-0.03s0.2-0.05,0.28-0.1c0.08-0.05,0.14-0.11,0.18-0.19c0.04-0.08,0.06-0.18,0.06-0.3
		c0-0.16-0.06-0.3-0.17-0.41c-0.12-0.11-0.26-0.21-0.43-0.3c-0.17-0.09-0.36-0.18-0.56-0.26c-0.2-0.08-0.39-0.18-0.56-0.29
		c-0.17-0.11-0.32-0.24-0.43-0.38c-0.12-0.15-0.17-0.33-0.17-0.54c0-0.37,0.11-0.65,0.34-0.82c0.23-0.17,0.57-0.25,1.03-0.25
		c0.12,0,0.24,0.01,0.35,0.03c0.11,0.02,0.22,0.04,0.32,0.06c0.1,0.02,0.19,0.04,0.28,0.06c0.09,0.02,0.17,0.03,0.25,0.03h0.22
		c0,0.07-0.01,0.13-0.01,0.19c0,0.06-0.01,0.12-0.01,0.19c0,0.12,0,0.24,0.01,0.36c0.01,0.12,0.02,0.24,0.03,0.36H71.26z"/>
	<path class="st2" d="M72.05,29.54c0.18,0.01,0.36,0.02,0.54,0.02s0.36,0.01,0.54,0.01c0.18,0,0.35,0,0.52-0.01
		c0.17-0.01,0.34-0.02,0.52-0.02v0.14c-0.14,0-0.25,0.02-0.34,0.04c-0.09,0.03-0.16,0.06-0.21,0.11s-0.08,0.12-0.1,0.2
		c-0.02,0.08-0.03,0.18-0.03,0.3v2.54c0,0.16,0.05,0.27,0.15,0.34c0.1,0.07,0.27,0.11,0.51,0.13l-0.01,0.14
		c-0.18-0.01-0.35-0.01-0.52-0.02c-0.17,0-0.34-0.01-0.52-0.01c-0.18,0-0.36,0-0.54,0.01c-0.18,0-0.36,0.01-0.54,0.02v-0.14
		c0.24-0.01,0.41-0.05,0.51-0.13c0.1-0.07,0.15-0.19,0.15-0.34v-2.54c0-0.24-0.04-0.4-0.13-0.5c-0.09-0.1-0.26-0.15-0.51-0.16V29.54
		z"/>
	<path class="st2" d="M74.33,33.35c0.19-0.03,0.33-0.06,0.44-0.09c0.11-0.03,0.19-0.08,0.25-0.15c0.06-0.07,0.09-0.15,0.11-0.26
		c0.02-0.11,0.02-0.25,0.02-0.43l0.02-2.33c-0.05-0.06-0.11-0.11-0.18-0.16c-0.07-0.04-0.13-0.08-0.21-0.11
		c-0.07-0.03-0.15-0.06-0.22-0.08c-0.08-0.02-0.15-0.04-0.23-0.06v-0.14c0.1,0.01,0.21,0.02,0.31,0.02s0.21,0.01,0.31,0.01
		c0.28,0,0.55-0.01,0.81-0.04c0.4,0.49,0.8,0.98,1.21,1.45c0.41,0.47,0.8,0.96,1.18,1.47h0.01c0-0.13,0-0.29,0-0.48
		c0-0.2,0-0.4-0.01-0.61c-0.01-0.21-0.01-0.41-0.03-0.61c-0.01-0.2-0.03-0.36-0.05-0.5c-0.02-0.1-0.04-0.19-0.08-0.25
		c-0.04-0.07-0.09-0.12-0.15-0.16c-0.06-0.04-0.13-0.07-0.21-0.1c-0.08-0.02-0.16-0.04-0.26-0.06v-0.14
		c0.14,0.01,0.28,0.02,0.42,0.02c0.14,0.01,0.28,0.01,0.42,0.01c0.28,0,0.56-0.01,0.83-0.04v0.14c-0.16,0.01-0.28,0.03-0.37,0.07
		c-0.09,0.04-0.16,0.1-0.21,0.18c-0.05,0.08-0.08,0.2-0.09,0.34c-0.01,0.14-0.02,0.32-0.02,0.54v2.75h-0.35
		c-0.12-0.18-0.26-0.38-0.41-0.59c-0.15-0.21-0.31-0.42-0.48-0.63s-0.33-0.42-0.5-0.62c-0.17-0.2-0.33-0.39-0.49-0.57
		c-0.16-0.18-0.3-0.34-0.43-0.49c-0.13-0.15-0.24-0.27-0.33-0.37v2.03c0,0.2,0.01,0.37,0.02,0.49c0.02,0.12,0.05,0.22,0.1,0.29
		c0.05,0.07,0.13,0.12,0.24,0.16c0.1,0.03,0.24,0.06,0.42,0.09v0.14c-0.15-0.01-0.29-0.01-0.44-0.02c-0.14,0-0.29-0.01-0.44-0.01
		c-0.17,0-0.33,0-0.49,0.01c-0.16,0-0.32,0.01-0.49,0.02V33.35z"/>
	<path class="st2" d="M82.87,31.13c-0.03-0.18-0.08-0.36-0.17-0.53c-0.08-0.17-0.19-0.32-0.31-0.45c-0.12-0.13-0.26-0.23-0.42-0.31
		s-0.33-0.12-0.51-0.12c-0.24,0-0.44,0.05-0.6,0.16c-0.16,0.11-0.3,0.24-0.39,0.41c-0.1,0.17-0.17,0.35-0.21,0.55
		c-0.04,0.2-0.06,0.4-0.06,0.59c0,0.25,0.03,0.48,0.1,0.68c0.07,0.21,0.17,0.39,0.3,0.54s0.3,0.27,0.49,0.36
		c0.2,0.09,0.43,0.13,0.69,0.13c0.19,0,0.36-0.03,0.51-0.08c0.15-0.06,0.29-0.13,0.41-0.22c0.12-0.09,0.23-0.19,0.32-0.3
		c0.09-0.11,0.18-0.22,0.25-0.33l0.14,0.15c-0.23,0.39-0.51,0.68-0.84,0.89c-0.33,0.21-0.73,0.31-1.18,0.31
		c-0.3,0-0.57-0.05-0.83-0.15c-0.25-0.1-0.47-0.24-0.65-0.42c-0.18-0.18-0.33-0.4-0.43-0.65c-0.1-0.25-0.16-0.54-0.16-0.85
		c0-0.31,0.05-0.59,0.16-0.85c0.11-0.25,0.26-0.47,0.45-0.65c0.19-0.18,0.42-0.32,0.69-0.42c0.27-0.1,0.56-0.15,0.88-0.15
		c0.11,0,0.24,0.01,0.39,0.03c0.15,0.02,0.3,0.05,0.44,0.07c0.14,0.03,0.27,0.05,0.38,0.07c0.11,0.02,0.17,0.03,0.19,0.03
		c0.03,0,0.05,0,0.07-0.01c0,0.08,0,0.16-0.01,0.23c0,0.07-0.01,0.15-0.01,0.23c0,0.17,0.01,0.33,0.02,0.5
		c0.01,0.17,0.03,0.33,0.05,0.5H82.87z"/>
	<path class="st2" d="M83.51,33.35c0.14-0.01,0.24-0.02,0.33-0.05c0.08-0.03,0.14-0.07,0.19-0.12c0.04-0.05,0.07-0.12,0.09-0.21
		c0.01-0.08,0.02-0.19,0.02-0.31v-2.27c0-0.11-0.01-0.21-0.02-0.29c-0.01-0.08-0.04-0.15-0.09-0.21c-0.04-0.06-0.11-0.1-0.19-0.13
		c-0.08-0.03-0.19-0.05-0.33-0.05v-0.17c0.2,0.01,0.41,0.02,0.61,0.02s0.41,0.01,0.61,0.01c0.39,0,0.77,0,1.15-0.01
		c0.38-0.01,0.77-0.02,1.17-0.02c0,0.07-0.01,0.14-0.01,0.22c0,0.07,0,0.14,0,0.21c0,0.12,0,0.25,0.01,0.36
		c0,0.12,0.02,0.23,0.04,0.33l-0.13,0.02c-0.1-0.3-0.25-0.53-0.46-0.68c-0.21-0.15-0.51-0.23-0.91-0.23h-0.67v1.45h0.31
		c0.1,0,0.21-0.01,0.31-0.04c0.1-0.03,0.19-0.07,0.28-0.13c0.09-0.06,0.16-0.13,0.22-0.23c0.06-0.1,0.11-0.21,0.14-0.35h0.12
		c0,0.14-0.01,0.28-0.01,0.42c-0.01,0.14-0.01,0.29-0.01,0.42c0,0.14,0,0.29,0.01,0.43c0.01,0.14,0.01,0.28,0.01,0.43H86.2
		c-0.03-0.15-0.08-0.27-0.14-0.37c-0.06-0.1-0.13-0.18-0.21-0.24c-0.08-0.06-0.17-0.1-0.27-0.13c-0.1-0.03-0.21-0.04-0.33-0.04
		h-0.31v1.78c0.1,0.03,0.2,0.05,0.32,0.06c0.12,0.01,0.25,0.02,0.39,0.02c0.39,0,0.74-0.09,1.06-0.28c0.31-0.19,0.58-0.47,0.8-0.86
		l0.11,0.08c-0.1,0.21-0.19,0.42-0.28,0.63c-0.09,0.21-0.17,0.43-0.24,0.65c-0.31-0.01-0.62-0.01-0.93-0.02
		c-0.31,0-0.62-0.01-0.93-0.01c-0.19,0-0.38,0-0.56,0c-0.18,0-0.34,0-0.49,0c-0.15,0-0.28,0.01-0.4,0.01
		c-0.12,0-0.21,0.01-0.29,0.01V33.35z"/>
	<path class="st2" d="M89.59,33.37c0.14,0,0.26-0.01,0.36-0.02c0.09-0.01,0.17-0.04,0.22-0.1c0.05-0.05,0.09-0.14,0.11-0.25
		c0.02-0.11,0.03-0.27,0.03-0.46v-2.04c0-0.13-0.01-0.24-0.03-0.32c-0.02-0.08-0.05-0.15-0.1-0.19c-0.05-0.05-0.11-0.08-0.2-0.1
		c-0.08-0.02-0.19-0.03-0.33-0.03v-0.12c0.46-0.05,0.9-0.16,1.32-0.32v3.12c0,0.2,0.01,0.35,0.03,0.46c0.02,0.11,0.05,0.19,0.1,0.25
		c0.05,0.05,0.11,0.09,0.2,0.1c0.09,0.01,0.19,0.02,0.33,0.02v0.12c-0.17-0.01-0.34-0.01-0.51-0.02c-0.17,0-0.34-0.01-0.51-0.01
		c-0.17,0-0.34,0-0.51,0.01c-0.17,0-0.34,0.01-0.51,0.02V33.37z"/>
	<path class="st2" d="M92.35,33.37c0.3,0,0.57-0.04,0.79-0.11s0.41-0.17,0.57-0.31c0.16-0.14,0.28-0.31,0.37-0.52
		c0.09-0.21,0.16-0.45,0.21-0.73c-0.12,0.07-0.24,0.12-0.37,0.15c-0.13,0.03-0.26,0.04-0.4,0.04c-0.18,0-0.33-0.03-0.48-0.1
		c-0.14-0.06-0.26-0.15-0.36-0.26c-0.1-0.11-0.17-0.24-0.23-0.39c-0.05-0.15-0.08-0.31-0.08-0.48c0-0.19,0.03-0.36,0.1-0.51
		c0.07-0.15,0.16-0.27,0.28-0.37c0.12-0.1,0.26-0.18,0.41-0.23c0.16-0.05,0.33-0.08,0.51-0.08c0.24,0,0.45,0.04,0.62,0.13
		c0.17,0.09,0.32,0.2,0.43,0.35c0.11,0.15,0.2,0.32,0.25,0.51c0.06,0.19,0.08,0.4,0.08,0.61c0,0.45-0.06,0.83-0.18,1.15
		c-0.12,0.32-0.3,0.58-0.53,0.77c-0.23,0.2-0.52,0.34-0.85,0.44c-0.34,0.09-0.72,0.14-1.15,0.14V33.37z M94.3,30.79
		c0-0.19-0.02-0.36-0.06-0.5c-0.04-0.14-0.09-0.26-0.16-0.35c-0.07-0.09-0.14-0.16-0.22-0.2c-0.08-0.04-0.16-0.07-0.25-0.07
		c-0.1,0-0.18,0.02-0.24,0.07c-0.07,0.05-0.12,0.12-0.16,0.2c-0.04,0.08-0.07,0.18-0.08,0.3c-0.02,0.11-0.02,0.24-0.02,0.37
		c0,0.32,0.06,0.57,0.17,0.74c0.11,0.17,0.26,0.26,0.43,0.26c0.1,0,0.19-0.02,0.27-0.07c0.08-0.04,0.14-0.1,0.19-0.18
		c0.05-0.07,0.08-0.16,0.1-0.26S94.3,30.9,94.3,30.79z"/>
	<path class="st2" d="M98.11,30.41c0,0.11-0.02,0.21-0.06,0.31c-0.04,0.09-0.09,0.17-0.16,0.25c-0.07,0.07-0.14,0.14-0.23,0.19
		s-0.18,0.09-0.28,0.13c0.13,0.08,0.25,0.16,0.35,0.24c0.11,0.08,0.2,0.16,0.28,0.26c0.08,0.09,0.14,0.2,0.18,0.32
		c0.04,0.12,0.07,0.26,0.07,0.42c0,0.21-0.05,0.38-0.14,0.52c-0.09,0.14-0.21,0.25-0.36,0.33s-0.31,0.14-0.48,0.18
		c-0.18,0.03-0.35,0.05-0.51,0.05c-0.16,0-0.32-0.02-0.48-0.07s-0.3-0.11-0.43-0.2c-0.13-0.09-0.23-0.21-0.31-0.34
		c-0.08-0.14-0.12-0.3-0.12-0.48c0-0.27,0.08-0.49,0.24-0.66c0.16-0.17,0.36-0.31,0.6-0.41c-0.08-0.06-0.15-0.12-0.23-0.19
		c-0.08-0.07-0.15-0.14-0.21-0.21c-0.06-0.07-0.11-0.16-0.15-0.25c-0.04-0.09-0.06-0.19-0.06-0.3c0-0.18,0.04-0.33,0.11-0.45
		c0.07-0.13,0.17-0.23,0.28-0.31c0.12-0.08,0.25-0.14,0.39-0.18c0.15-0.04,0.3-0.06,0.45-0.06c0.14,0,0.29,0.02,0.44,0.05
		s0.29,0.08,0.41,0.16c0.12,0.07,0.22,0.17,0.3,0.29C98.08,30.09,98.11,30.23,98.11,30.41z M96.02,32.32c0,0.13,0.02,0.25,0.05,0.37
		c0.03,0.12,0.09,0.23,0.16,0.33c0.07,0.1,0.16,0.17,0.26,0.23c0.1,0.06,0.22,0.09,0.36,0.09c0.22,0,0.38-0.05,0.51-0.16
		c0.12-0.11,0.18-0.28,0.18-0.5c0-0.11-0.04-0.22-0.12-0.33c-0.08-0.11-0.18-0.21-0.29-0.3c-0.11-0.09-0.23-0.18-0.36-0.27
		c-0.13-0.08-0.23-0.16-0.32-0.23c-0.13,0.07-0.23,0.18-0.31,0.32C96.06,32.02,96.02,32.16,96.02,32.32z M97.52,30.39
		c0-0.1-0.02-0.19-0.04-0.28c-0.03-0.09-0.07-0.16-0.13-0.23c-0.06-0.07-0.12-0.12-0.21-0.16c-0.08-0.04-0.17-0.06-0.28-0.06
		c-0.15,0-0.28,0.05-0.37,0.14c-0.1,0.09-0.15,0.23-0.15,0.41c0,0.11,0.03,0.2,0.09,0.29c0.06,0.09,0.13,0.16,0.22,0.24
		c0.09,0.07,0.18,0.14,0.28,0.2c0.1,0.06,0.19,0.13,0.27,0.2c0.12-0.1,0.21-0.22,0.25-0.34C97.49,30.69,97.52,30.55,97.52,30.39z"/>
	<path class="st2" d="M98.56,33.37c0.3,0,0.57-0.04,0.79-0.11c0.22-0.07,0.41-0.17,0.57-0.31c0.16-0.14,0.28-0.31,0.37-0.52
		c0.09-0.21,0.16-0.45,0.21-0.73c-0.12,0.07-0.24,0.12-0.37,0.15c-0.13,0.03-0.26,0.04-0.4,0.04c-0.18,0-0.33-0.03-0.48-0.1
		c-0.14-0.06-0.26-0.15-0.36-0.26s-0.17-0.24-0.23-0.39c-0.05-0.15-0.08-0.31-0.08-0.48c0-0.19,0.03-0.36,0.1-0.51
		c0.07-0.15,0.16-0.27,0.28-0.37c0.12-0.1,0.26-0.18,0.41-0.23c0.16-0.05,0.33-0.08,0.51-0.08c0.24,0,0.45,0.04,0.62,0.13
		c0.17,0.09,0.32,0.2,0.43,0.35c0.11,0.15,0.2,0.32,0.25,0.51c0.06,0.19,0.08,0.4,0.08,0.61c0,0.45-0.06,0.83-0.18,1.15
		c-0.12,0.32-0.3,0.58-0.53,0.77c-0.23,0.2-0.52,0.34-0.85,0.44c-0.34,0.09-0.72,0.14-1.15,0.14V33.37z M100.51,30.79
		c0-0.19-0.02-0.36-0.06-0.5c-0.04-0.14-0.09-0.26-0.16-0.35c-0.07-0.09-0.14-0.16-0.22-0.2c-0.08-0.04-0.16-0.07-0.25-0.07
		c-0.1,0-0.18,0.02-0.24,0.07c-0.07,0.05-0.12,0.12-0.16,0.2c-0.04,0.08-0.07,0.18-0.08,0.3c-0.02,0.11-0.02,0.24-0.02,0.37
		c0,0.32,0.06,0.57,0.17,0.74c0.11,0.17,0.26,0.26,0.43,0.26c0.1,0,0.19-0.02,0.27-0.07c0.08-0.04,0.14-0.1,0.19-0.18
		c0.05-0.07,0.08-0.16,0.1-0.26C100.5,31.01,100.51,30.9,100.51,30.79z"/>
</g>
<line class="st1" x1="107.37" y1="31.39" x2="167.23" y2="31.39"/>
</svg>
